D:\school\WTK\thesis\model\3dpredictsim\Results\batch_windlass\Pog_s1_tmt_aCst_d00_k800_WL20_ig24_pas_GRF.mot
nRows=20
nColumns=19

name D:\school\WTK\thesis\model\3dpredictsim\Results\batch_windlass\Pog_s1_tmt_aCst_d00_k800_WL20_ig24_pas_GRF.mot
datacolumns 19
datarows 20
range 0.0000000000 0.1998799122
endheader
time 	ground_force_vx	ground_force_vy	ground_force_vz	ground_force_px	ground_force_py	ground_force_pz	1_ground_force_vx	1_ground_force_vy	1_ground_force_vz	1_ground_force_px	1_ground_force_py	1_ground_force_pz	ground_torque_x	ground_torque_y	ground_torque_z	1_ground_torque_x	1_ground_torque_y	1_ground_torque_z
        0.0000000000	      -72.6334474322	       62.4028760541	       24.5538460809	        0.1344196496	        0.0000000000	        0.0482752021	       92.3203200776	      423.7300863317	        2.4769302966	       -0.3366486211	        0.0000000000	       -0.0349023592	        0.0000000000	        0.0000000000	        0.0000000000	        0.0000000000	        0.0000000000	        0.0000000000	
        0.0105199954	     -145.8063679405	      154.4078428203	       61.1851316899	        0.1472768504	        0.0000000000	        0.0476823120	       62.3959930117	      325.2521119851	       -6.8973532515	       -0.3301681542	        0.0000000000	       -0.0321635842	        0.0000000000	        0.0000000000	        0.0000000000	        0.0000000000	        0.0000000000	        0.0000000000	
        0.0210399908	      -70.8769632211	      350.7524076541	       28.8789067300	        0.1607273633	        0.0000000000	        0.0465582293	       29.5924212540	      216.6488469173	      -12.5124317426	       -0.3182958935	        0.0000000000	       -0.0262299100	        0.0000000000	        0.0000000000	        0.0000000000	        0.0000000000	        0.0000000000	        0.0000000000	
        0.0315599861	      -92.2087692617	      626.5792500979	       -1.9587960152	        0.1718098460	        0.0000000000	        0.0454150396	       10.0330753458	      155.9662042477	      -15.6961922694	       -0.3085016194	        0.0000000000	       -0.0204682305	        0.0000000000	        0.0000000000	        0.0000000000	        0.0000000000	        0.0000000000	        0.0000000000	
        0.0420799815	     -116.9678475594	      852.4327176894	       -9.6493486344	        0.1798207096	        0.0000000000	        0.0441070207	        2.3314306879	      122.3009595759	      -15.9662183680	       -0.3086089612	        0.0000000000	       -0.0206172421	        0.0000000000	        0.0000000000	        0.0000000000	        0.0000000000	        0.0000000000	        0.0000000000	
        0.0525999769	     -126.9801752165	      923.9278235778	      -10.1464515524	        0.1841057820	        0.0000000000	        0.0432248809	       -5.2879296921	       81.4016210326	      -14.3599221251	       -0.3086071110	        0.0000000000	       -0.0206532426	        0.0000000000	        0.0000000000	        0.0000000000	        0.0000000000	        0.0000000000	        0.0000000000	
        0.0631199723	     -119.0425190884	      907.5569296872	      -11.5399421891	        0.1866355612	        0.0000000000	        0.0425852990	      -13.4443732437	       35.0717595733	       -7.4720553602	       -0.3097555557	        0.0000000000	       -0.0203755462	        0.0000000000	        0.0000000000	        0.0000000000	        0.0000000000	        0.0000000000	        0.0000000000	
        0.0736399677	     -107.2665863205	      867.5985606560	      -12.0732230899	        0.1889789426	        0.0000000000	        0.0421143891	        0.0770051820	       -0.0734107214	        0.0017096344	        0.0000000000	        0.0000000000	        0.0000000000	        0.0000000000	        0.0000000000	        0.0000000000	        0.0000000000	        0.0000000000	        0.0000000000	
        0.0841599630	      -93.0744001180	      820.9939470248	      -13.0166216485	        0.1912066709	        0.0000000000	        0.0417661114	        0.0002650394	       -0.0002132692	       -0.0000084502	        0.0000000000	        0.0000000000	        0.0000000000	        0.0000000000	        0.0000000000	        0.0000000000	        0.0000000000	        0.0000000000	        0.0000000000	
        0.0946799584	      -79.3683997643	      775.0430206221	      -13.8590373792	        0.1935515495	        0.0000000000	        0.0415359998	        0.0001132727	       -0.0000814160	       -0.0000050667	        0.0000000000	        0.0000000000	        0.0000000000	        0.0000000000	        0.0000000000	        0.0000000000	        0.0000000000	        0.0000000000	        0.0000000000	
        0.1051999538	      -66.9517435006	      734.1868580696	      -14.4175879891	        0.1960821922	        0.0000000000	        0.0414098748	        0.0004620446	       -0.0003042415	       -0.0000235684	        0.0000000000	        0.0000000000	        0.0000000000	        0.0000000000	        0.0000000000	        0.0000000000	        0.0000000000	        0.0000000000	        0.0000000000	
        0.1157199492	      -55.6824831419	      700.6734630107	      -16.2681444415	        0.1995848950	        0.0000000000	        0.0413236523	        0.0061937915	       -0.0037737840	       -0.0003550274	        0.0000000000	        0.0000000000	        0.0000000000	        0.0000000000	        0.0000000000	        0.0000000000	        0.0000000000	        0.0000000000	        0.0000000000	
        0.1262399446	      -47.0280091867	      674.3238389645	      -18.2634633618	        0.2043016110	        0.0000000000	        0.0412400235	       -0.0282866448	        0.0160338638	        0.0018584360	        0.0000000000	        0.0000000000	        0.0000000000	        0.0000000000	        0.0000000000	        0.0000000000	        0.0000000000	        0.0000000000	        0.0000000000	
        0.1367599399	      -40.5456669832	      653.2944709009	      -19.8250004751	        0.2096607088	        0.0000000000	        0.0411532327	       -0.0350582569	        0.0186065170	        0.0026140521	        0.0000000000	        0.0000000000	        0.0000000000	        0.0000000000	        0.0000000000	        0.0000000000	        0.0000000000	        0.0000000000	        0.0000000000	
        0.1472799353	      -35.2325328772	      636.1217527167	      -20.7805699903	        0.2153344350	        0.0000000000	        0.0410628279	       -0.0227952588	        0.0114040404	        0.0018824979	        0.0000000000	        0.0000000000	        0.0000000000	        0.0000000000	        0.0000000000	        0.0000000000	        0.0000000000	        0.0000000000	        0.0000000000	
        0.1577999307	      -30.9567544170	      622.2481638823	      -21.2724918203	        0.2211991308	        0.0000000000	        0.0409592436	       -0.0166499970	        0.0079110141	        0.0014843793	        0.0000000000	        0.0000000000	        0.0000000000	        0.0000000000	        0.0000000000	        0.0000000000	        0.0000000000	        0.0000000000	        0.0000000000	
        0.1683199261	      -27.6833247689	      610.8804508977	      -21.3097542405	        0.2270185203	        0.0000000000	        0.0408479503	       -0.0153762082	        0.0069913711	        0.0014439864	        0.0000000000	        0.0000000000	        0.0000000000	        0.0000000000	        0.0000000000	        0.0000000000	        0.0000000000	        0.0000000000	        0.0000000000	
        0.1788399215	      -24.9737700979	      601.4997514899	      -20.7056369270	        0.2326526032	        0.0000000000	        0.0407379929	       -0.0181926380	        0.0079706948	        0.0017607785	        0.0000000000	        0.0000000000	        0.0000000000	        0.0000000000	        0.0000000000	        0.0000000000	        0.0000000000	        0.0000000000	        0.0000000000	
        0.1893599168	      -22.5638270884	      594.2910516258	      -20.0102478497	        0.2381763896	        0.0000000000	        0.0406163185	       -0.0266576614	        0.0113189661	        0.0026054948	        0.0000000000	        0.0000000000	        0.0000000000	        0.0000000000	        0.0000000000	        0.0000000000	        0.0000000000	        0.0000000000	        0.0000000000	
        0.1998799122	      -21.0918812984	      588.2415241984	      -19.2786561605	        0.2433977352	        0.0000000000	        0.0404911468	       -0.0456424494	        0.0188686080	        0.0044504130	        0.0000000000	        0.0000000000	        0.0000000000	        0.0000000000	        0.0000000000	        0.0000000000	        0.0000000000	        0.0000000000	        0.0000000000	
